<?xml version="1.0" standalone="no"?>
<!DOCTYPE svg PUBLIC "-//W3C//DTD SVG 20010904//EN"
 "http://www.w3.org/TR/2001/REC-SVG-20010904/DTD/svg10.dtd">
<svg version="1.0" xmlns="http://www.w3.org/2000/svg"
 width="387.000000pt" height="400.000000pt" viewBox="0 0 387.000000 400.000000"
 preserveAspectRatio="xMidYMid meet">

<g transform="translate(0.000000,400.000000) scale(0.100000,-0.100000)"
fill="#000000" stroke="none">
<path d="M0 2862 l0 -1139 30 5 c49 7 74 -30 54 -82 -7 -19 -55 -21 -72 -4 -9
9 -12 -63 -12 -324 0 -324 1 -338 21 -373 22 -37 20 -65 -6 -65 -13 0 -15 -18
-15 -114 l0 -114 68 5 c37 3 68 7 70 8 2 2 -11 19 -27 38 -50 56 -38 75 44 69
11 -1 102 -2 203 -2 118 -1 182 -5 182 -12 0 -5 -9 -21 -20 -35 -17 -22 -28
-25 -107 -30 -48 -3 -114 -5 -145 -6 -41 0 -58 -5 -58 -14 0 -9 14 -13 44 -13
41 0 170 -25 188 -36 9 -6 -4 -34 -25 -56 -26 -27 -115 -154 -132 -188 -9 -19
-36 -57 -58 -85 -23 -27 -45 -54 -49 -60 -43 -60 -66 -77 -103 -79 -81 -5 -75
1 -75 -81 l0 -75 1935 0 1935 0 0 675 c0 670 0 675 -20 675 -11 0 -36 16 -54
35 -31 31 -36 33 -50 20 -20 -21 -27 -19 -60 15 -31 32 -49 109 -35 146 4 11
8 58 8 105 1 91 14 119 57 119 10 0 33 9 49 20 17 11 47 20 68 20 l37 0 0
1085 0 1085 -1477 0 c-1284 -1 -1481 -3 -1497 -15 -25 -19 -36 -19 -36 0 0 13
-54 15 -430 15 l-430 0 0 -1138z m2250 1000 c30 -13 32 -15 15 -21 -11 -3 -29
-11 -40 -18 -17 -10 -18 -15 -8 -32 7 -11 17 -49 23 -86 10 -60 9 -67 -11 -94
-29 -39 -19 -61 26 -61 33 0 35 -2 35 -34 0 -27 -5 -35 -24 -40 -25 -6 -36
-31 -36 -84 0 -26 -4 -33 -16 -30 -18 3 -21 8 -48 71 -10 25 -22 37 -35 37
-24 0 -30 18 -30 100 0 81 6 105 23 91 7 -6 16 -8 19 -4 13 12 7 23 -12 23
-13 0 -19 8 -20 23 -1 12 -4 53 -7 90 -3 37 -3 74 -1 81 7 17 98 10 147 -12z
m-1273 -109 c10 -28 -7 -114 -27 -138 -8 -9 -8 -14 0 -17 6 -2 13 -28 15 -57
3 -30 10 -60 16 -67 16 -19 3 -61 -21 -69 -26 -8 -26 -32 0 -40 12 -4 22 -19
26 -43 10 -49 10 -465 1 -834 -6 -245 -4 -309 8 -367 19 -91 23 -219 7 -248
-20 -37 -69 -56 -140 -55 -127 2 -162 52 -137 195 31 177 36 273 40 769 4 534
16 721 48 756 14 15 13 20 -4 41 -20 24 -19 43 3 89 9 17 9 25 0 34 -10 10
-17 48 -9 48 1 0 20 7 42 15 22 8 59 14 82 15 36 0 42 -3 50 -27z m2550 -104
c-6 -10 -20 -22 -29 -25 -10 -3 -18 -10 -18 -15 0 -5 -11 -9 -25 -9 -18 0 -25
5 -25 20 0 15 7 20 28 20 16 0 37 8 48 19 24 23 38 17 21 -10z m-10 -245 c49
-13 28 -63 -27 -63 -27 0 -60 20 -60 37 0 24 44 37 87 26z m-1377 -64 c21 -41
26 -80 11 -80 -4 0 -22 5 -40 11 -28 10 -31 15 -31 53 0 42 15 70 32 60 4 -3
17 -23 28 -44z m1430 -190 c0 -45 -25 -90 -51 -90 -19 0 -46 19 -63 44 -15 24
-15 28 1 61 16 34 19 35 65 34 l48 -2 0 -47z m-1708 -207 c25 -14 51 -22 57
-19 14 9 14 1 -1 -27 -6 -12 -14 -29 -18 -37 -4 -8 -2 -26 5 -40 7 -15 10 -42
6 -65 l-5 -40 -6 45 -6 45 -13 -30 c-7 -16 -15 -55 -17 -85 -4 -43 -2 -50 6
-32 5 13 14 20 20 17 12 -7 13 -35 2 -35 -5 0 -7 -13 -4 -30 2 -17 10 -30 18
-30 17 0 19 -20 2 -21 -10 0 -10 -2 0 -6 6 -2 10 -8 7 -13 -2 -4 14 -10 38
-13 27 -4 44 -2 49 6 4 7 8 -3 8 -22 l0 -34 -142 8 c-206 10 -292 21 -282 36
3 5 -3 9 -14 9 -10 0 -22 3 -26 8 -13 13 -118 9 -148 -6 -18 -8 -35 -29 -45
-53 -14 -35 -43 -55 -43 -29 0 6 -5 10 -11 10 -6 0 -27 14 -48 32 -34 28 -37
35 -30 62 15 60 86 256 103 280 17 26 80 59 137 71 19 4 59 18 89 32 104 47
230 50 312 6z m1713 -181 c0 -58 5 -95 13 -105 16 -19 16 -224 0 -276 -7 -23
-7 -40 0 -55 10 -20 15 -48 43 -225 18 -119 17 -250 -4 -288 -9 -17 -26 -34
-37 -38 -11 -3 -24 -14 -30 -24 -6 -12 -26 -20 -58 -24 -40 -5 -58 -1 -97 19
-27 13 -56 24 -66 24 -26 0 -49 38 -40 64 5 11 12 68 15 126 4 58 14 141 21
185 23 142 29 199 26 253 -6 101 41 147 79 77 15 -27 23 -30 68 -33 49 -3 52
-2 52 22 0 13 -10 37 -23 53 -13 15 -30 40 -39 54 -10 15 -34 35 -55 45 -34
17 -39 24 -44 64 -4 25 -10 65 -13 90 -4 25 -3 50 1 56 4 6 35 26 67 43 l59
31 31 -24 c31 -23 31 -25 31 -114z m-1625 -91 c0 -12 -4 -21 -10 -21 -5 0 -10
6 -10 13 0 6 -3 23 -7 37 -6 23 -6 24 10 8 9 -9 17 -26 17 -37z m100 -96 c0
-8 -4 -15 -10 -15 -5 0 -10 7 -10 15 0 8 5 15 10 15 6 0 10 -7 10 -15z m-287
-102 c-18 -2 -48 -2 -65 0 -18 2 -4 4 32 4 36 0 50 -2 33 -4z m37 -23 c61 -6
66 -8 27 -9 -69 -2 -190 -31 -203 -49 -11 -15 -34 -9 -34 9 0 6 4 8 8 5 4 -2
14 -1 22 4 12 8 11 13 -10 27 -13 10 -31 21 -40 25 -15 7 97 1 230 -12z m83
13 c-13 -2 -33 -2 -45 0 -13 2 -3 4 22 4 25 0 35 -2 23 -4z m468 -8 c94 -49
90 -211 -6 -311 -33 -34 -50 -43 -101 -53 -73 -14 -129 -7 -167 20 l-28 20
-24 -23 c-14 -13 -25 -33 -25 -46 0 -12 -6 -25 -13 -28 -9 -3 -14 -23 -16 -52
-1 -25 -6 -51 -11 -56 -6 -6 -10 -18 -10 -29 0 -10 -5 -28 -11 -39 -9 -17 -13
-18 -20 -7 -7 11 -9 11 -9 1 0 -7 -15 -27 -32 -45 -18 -17 -32 -35 -30 -39 1
-4 -4 -8 -12 -8 -8 0 -16 -3 -18 -8 -1 -4 -23 -23 -47 -42 -41 -32 -49 -34
-108 -32 -58 3 -63 2 -63 -17 0 -12 -5 -21 -10 -21 -6 0 -22 -11 -35 -26 -29
-31 -106 -41 -139 -18 -11 8 -30 14 -41 14 -14 0 -5 -10 30 -34 28 -19 65 -47
83 -63 31 -27 32 -29 17 -50 -21 -30 -60 -29 -120 3 -27 14 -76 36 -109 50
-34 14 -66 28 -72 30 -12 5 -18 -57 -6 -66 4 -3 20 -20 35 -38 23 -28 27 -43
27 -93 0 -32 3 -59 8 -59 4 0 7 -11 7 -24 0 -36 -18 -22 -64 50 -23 35 -48 64
-56 64 -9 0 -20 10 -25 23 l-9 22 0 -22 c-1 -31 9 -53 24 -53 31 0 78 -102 91
-195 4 -27 9 -44 11 -37 6 17 23 15 23 -3 0 -30 -44 -16 -70 22 -40 60 -140
151 -160 146 -10 -3 -34 0 -54 6 -28 7 -36 7 -33 -2 5 -17 -24 -44 -53 -50
-24 -4 -24 -5 -4 -12 19 -6 23 -19 34 -102 9 -75 9 -105 0 -140 -7 -24 -17
-46 -21 -49 -5 -3 -9 -14 -9 -25 0 -11 -6 -22 -14 -25 -8 -3 -12 -13 -9 -25 5
-17 2 -18 -24 -8 -17 5 -43 23 -58 39 -27 28 -27 29 -21 137 18 323 20 340 46
369 26 27 140 105 184 126 30 13 42 49 51 151 6 56 11 72 35 95 24 23 71 89
105 146 9 15 12 16 30 2 20 -15 20 -15 -8 -42 -23 -21 -28 -32 -23 -56 4 -19
-1 -42 -13 -66 -11 -22 -17 -48 -14 -64 5 -24 9 -26 34 -21 20 4 41 -2 73 -21
24 -14 49 -26 55 -26 6 0 11 21 11 50 0 37 5 57 20 72 18 20 18 22 2 34 -13 9
-19 9 -24 1 -4 -7 -8 4 -8 25 0 31 4 37 30 47 38 13 38 20 1 19 -36 -1 -52 9
-44 27 3 10 -1 15 -16 15 -42 0 -195 69 -154 70 4 0 1 5 -7 10 -13 9 -13 10 0
9 8 0 31 -6 50 -13 31 -11 38 -11 63 7 15 12 27 27 27 34 0 7 7 13 16 13 11 0
15 6 11 20 -4 17 0 20 34 20 21 0 39 -4 39 -10 0 -14 33 -13 48 2 22 22 15 39
-11 27 -18 -8 -33 -7 -62 5 -20 9 -46 16 -55 16 -10 0 -21 6 -23 13 -3 7 -6 5
-6 -6 -1 -10 -7 -17 -13 -16 -7 1 -21 -1 -31 -6 -22 -9 -33 1 -42 36 -6 23 1
36 43 82 27 30 62 81 77 113 17 35 30 53 33 44 12 -41 35 -79 44 -74 5 3 15
-2 23 -12 13 -18 14 -18 21 0 5 14 1 24 -15 38 -14 11 -18 18 -10 18 10 1 9 5
-3 14 -27 20 -22 26 20 26 42 0 56 -7 65 -32 4 -11 12 -15 22 -12 17 7 21 24
5 24 -5 0 -10 5 -10 10 0 6 6 10 14 10 15 0 27 -45 21 -76 -2 -10 -6 -31 -9
-46 -12 -54 -66 -76 -101 -41 -16 16 -17 15 -14 -2 5 -23 52 -37 83 -25 27 10
56 66 56 108 0 17 5 34 10 37 6 3 10 2 10 -4 0 -5 18 0 40 10 90 44 161 59
278 59 88 0 112 -3 112 -14 0 -7 -7 -19 -16 -27 -14 -11 -13 -15 8 -31 33 -25
55 -22 62 8 11 43 46 68 113 82 34 7 77 19 95 27 42 18 53 18 89 0z m-844 -1
c-3 -3 -12 -4 -19 -1 -8 3 -5 6 6 6 11 1 17 -2 13 -5z m-107 -33 c0 -5 -9 -11
-20 -14 -13 -3 -20 0 -20 9 0 8 9 14 20 14 11 0 20 -4 20 -9z m423 2 c-13 -2
-33 -2 -45 0 -13 2 -3 4 22 4 25 0 35 -2 23 -4z m-73 -7 c0 -2 -11 -6 -25 -8
-13 -3 -22 -1 -19 3 5 9 44 13 44 5z m-550 -88 c0 -29 -4 -48 -9 -42 -8 8 -3
94 5 94 2 0 4 -23 4 -52z m-34 -50 c4 -7 9 -26 11 -43 l2 -30 -19 35 c-10 19
-19 38 -20 43 0 11 18 8 26 -5z m1450 -169 c3 -6 -1 -18 -10 -27 -12 -13 -21
-14 -33 -6 -24 15 -27 32 -6 37 31 8 42 7 49 -4z m-1416 -65 c0 -8 -9 -14 -20
-14 -21 0 -24 8 -14 34 5 13 9 14 20 5 8 -6 14 -18 14 -25z m58 8 c3 -9 -3
-13 -19 -10 -12 1 -24 9 -27 16 -3 9 3 13 19 10 12 -1 24 -9 27 -16z m902 -38
c0 -2 -7 -4 -15 -4 -8 0 -15 4 -15 10 0 5 7 7 15 4 8 -4 15 -8 15 -10z m-1906
-47 c34 -25 18 -92 -24 -97 -34 -5 -47 1 -58 25 -16 35 -15 51 4 69 19 19 54
21 78 3z m1930 -242 c8 -8 17 -15 20 -15 3 0 3 7 0 15 -10 25 14 17 48 -16 18
-17 26 -27 18 -23 -12 7 -11 3 2 -18 11 -17 14 -29 8 -33 -6 -3 -10 -1 -10 4
0 6 -4 11 -10 11 -5 0 -11 -15 -11 -32 l-2 -33 -6 33 c-3 18 -9 33 -13 32 -5
0 -14 0 -21 0 -8 0 -20 -11 -27 -25 -7 -13 -17 -22 -22 -19 -5 4 -8 -4 -6 -16
2 -13 11 -24 21 -26 27 -4 30 -9 23 -48 -6 -33 -8 -34 -30 -24 -16 7 -26 22
-31 45 -4 23 -13 37 -26 40 -10 3 -19 8 -19 12 0 7 41 35 52 36 3 0 10 4 15 9
5 5 3 6 -4 2 -24 -14 -13 10 16 35 l30 26 -25 13 c-13 7 -24 17 -24 22 0 13
17 9 34 -7z m16 -125 c0 -5 -5 -10 -11 -10 -5 0 -7 5 -4 10 3 6 8 10 11 10 2
0 4 -4 4 -10z m-136 -27 c9 -24 31 -62 45 -76 6 -6 11 -21 11 -34 l0 -23 -28
25 c-20 17 -29 36 -30 57 0 17 -8 38 -16 47 -15 14 -16 13 -17 -9 0 -14 -3
-19 -6 -12 -7 18 4 42 21 42 7 0 17 -8 20 -17z m214 -11 c20 -21 28 -52 12
-52 -6 0 -8 5 -5 10 3 6 1 10 -4 10 -16 0 -13 -20 4 -26 8 -4 15 -10 15 -15 0
-15 -30 3 -42 24 -8 16 -8 22 1 25 16 5 14 22 -4 22 -8 0 -15 5 -15 10 0 16
18 12 38 -8z m-288 -33 c0 -10 -3 -19 -7 -19 -5 0 -8 11 -8 24 0 13 3 22 8 19
4 -2 7 -13 7 -24z m-33 -1 c-3 -8 -6 -5 -6 6 -1 11 2 17 5 13 3 -3 4 -12 1
-19z m205 -86 c-7 -2 -9 -9 -6 -14 4 -7 2 -8 -4 -4 -19 12 -15 36 5 29 11 -4
13 -8 5 -11z m-53 -82 c0 -10 -3 -8 -9 5 -12 27 -12 43 0 25 5 -8 9 -22 9 -30z
m55 -36 c3 -8 2 -12 -4 -9 -6 3 -10 10 -10 16 0 14 7 11 14 -7z m104 -29 c-3
-3 -9 2 -12 12 -6 14 -5 15 5 6 7 -7 10 -15 7 -18z m16 -31 c3 -8 2 -12 -4 -9
-6 3 -10 10 -10 16 0 14 7 11 14 -7z m-396 -34 c3 -21 2 -22 -12 -11 -19 16
-21 44 -3 39 6 -3 14 -15 15 -28z m242 -41 c0 -11 -5 -19 -11 -19 -6 0 -9 6
-6 13 2 6 0 21 -6 32 -9 18 -9 19 6 6 10 -7 17 -22 17 -32z m-180 5 c0 -8 -4
-12 -10 -9 -5 3 -10 13 -10 21 0 8 5 12 10 9 6 -3 10 -13 10 -21z m-650 -20
c0 -8 -5 -12 -10 -9 -6 4 -8 11 -5 16 9 14 15 11 15 -7z m-142 -87 c17 -11 15
-28 -2 -21 -8 3 -17 1 -21 -5 -3 -6 1 -11 9 -11 10 0 13 -6 10 -15 -8 -21 -34
-19 -34 3 0 11 -5 7 -16 -13 -23 -45 -24 -43 -24 27 l0 66 33 -12 c17 -6 38
-15 45 -19z"/>
<path d="M2138 3832 c-20 -4 -24 -28 -5 -30 6 0 21 -2 31 -4 10 -2 20 2 22 7
5 14 -27 32 -48 27z"/>
<path d="M3449 1945 c-1 -6 -2 -23 -3 -40 -1 -16 -5 -39 -9 -51 -8 -21 24 -74
44 -74 19 0 21 31 4 50 -11 12 -16 32 -14 59 2 23 -2 46 -9 53 -7 7 -13 8 -13
3z"/>
<path d="M2251 2401 c-23 -22 -31 -38 -31 -64 0 -20 -4 -37 -8 -39 -12 -5 -62
-95 -62 -112 0 -19 20 -21 42 -3 14 11 40 61 50 97 4 11 11 8 31 -14 15 -16
30 -26 34 -23 3 4 -13 26 -37 48 l-44 42 26 21 c13 12 28 29 31 39 6 16 14 18
60 12 48 -5 51 -5 33 10 -33 25 -89 19 -125 -14z"/>
<path d="M2347 2198 l-16 -43 19 24 c17 20 28 61 17 61 -2 0 -11 -19 -20 -42z"/>
<path d="M2100 2110 c0 -5 5 -10 10 -10 6 0 10 5 10 10 0 6 -4 10 -10 10 -5 0
-10 -4 -10 -10z"/>
<path d="M1960 2100 c0 -5 5 -10 10 -10 6 0 10 5 10 10 0 6 -4 10 -10 10 -5 0
-10 -4 -10 -10z"/>
<path d="M1295 1980 c2 -11 0 -20 -6 -20 -18 0 -9 -17 16 -28 14 -7 28 -12 30
-12 9 0 5 41 -5 61 -14 26 -40 25 -35 -1z"/>
<path d="M1398 1877 c3 -12 10 -16 21 -11 9 4 31 9 49 12 56 8 45 21 -16 19
-52 -1 -58 -3 -54 -20z"/>
<path d="M998 1483 c7 -3 16 -2 19 1 4 3 -2 6 -13 5 -11 0 -14 -3 -6 -6z"/>
<path d="M2131 1594 c0 -11 3 -14 6 -6 3 7 2 16 -1 19 -3 4 -6 -2 -5 -13z"/>
<path d="M2154 1519 c-4 -7 -3 -9 4 -5 5 3 13 0 15 -6 4 -9 6 -10 6 -1 1 17
-16 25 -25 12z"/>
</g>
</svg>
